<svg xmlns="http://www.w3.org/2000/svg" width="252" height="251.992" viewBox="0 0 252 251.992"><g transform="translate(1451.574 5.929)"><g transform="translate(-1451.574 -5.929)"><circle cx="125.968" cy="125.968" r="125.968" transform="translate(0 0.056)" fill="#154284"></circle><path d="M126.228,251.659a125.914,125.914,0,1,1,49.034-9.892A126,126,0,0,1,126.228,251.659Zm0-246.027A120.058,120.058,0,0,0,41.334,210.585,120.058,120.058,0,1,0,211.122,40.8,119.274,119.274,0,0,0,126.228,5.632Z" transform="translate(-0.261 0.333)" fill="#fdc52c"></path><circle cx="125.968" cy="125.968" r="125.968" transform="translate(0 0.056)" fill="none"></circle><path d="M345.587,284.77l.915.606c10.029,6.639,18.1,7.854,30.39,7.854a41.846,41.846,0,0,0,13.437-2.351l1.166-.4,5.826,8.164-.6.8c-21.65,28.759-4.772,59.808,7.175,72.2l1.1,1.147-1.125,1.125c-1.567,1.562-4.28,4.385-6.3,6.5l-.682.717.044.988.01.336c.012.25.018.512.071.964l.018.18c1.008,19.181-3.959,34.935-14.78,46.825-11.492,12.634-29.618,20.239-51.037,21.414l-.826.047-.611.559c-5.455,4.965-10.991,9.088-11.05,9.133l-.966.719-.966-.716c-.228-.168-5.7-4.239-11.085-9.137l-.611-.559-.826-.047c-21.419-1.176-39.545-8.781-51.039-21.414-10.816-11.893-15.788-27.647-14.77-46.83l.013-.181c.05-.423.059-.658.071-.925v-.079l.01-.3.044-.989-.682-.716c-1.9-2-4.688-4.9-6.293-6.5l-1.125-1.125,1.1-1.147c11.947-12.394,28.821-43.442,7.18-72.2l-.6-.8,5.838-8.158,1.164.4a41.783,41.783,0,0,0,13.437,2.351c12.286,0,20.36-1.214,30.39-7.854l.915-.606.9.623c8.848,6.142,17.4,9,26.923,9s18.074-2.855,26.924-9l.9-.623" transform="translate(-191.794 -236.885)" fill="#e8b909"></path><path d="M347.218,404.814c6.784-15.548,9.3-35.518-2.1-55.038a50.785,50.785,0,0,0,8.871.82c11.671,0,20.86-1.061,31.181-6.895a52.479,52.479,0,0,0,55.9,0c10.323,5.833,19.513,6.895,31.185,6.895a47.14,47.14,0,0,0,8.9-.867c-11.431,19.565-8.9,39.535-2.126,55.09H347.218" transform="translate(-287.155 -285.917)" fill="#fff"></path><path d="M814.231,404.823c-6.782-15.548-9.3-35.52,2.12-55.085a47.141,47.141,0,0,1-8.9.867c-11.671,0-20.862-1.061-31.185-6.895a52.951,52.951,0,0,1-27.967,8.062h-.307v53.051Z" transform="translate(-622.36 -285.926)" fill="#fd0"></path><path d="M1056,910.446c12.988-9.495,20.659-24.654,19.532-46.769-.131-1.258-.225-1.332-.324-2.6H1056Z" transform="translate(-878.637 -716.4)" fill="#0054a4"></path><path d="M933.57,919.932a62.018,62.018,0,0,0,20.558-9.52V861.05H933.57Z" transform="translate(-776.77 -716.375)" fill="#a30046"></path><path d="M444,910.421a62.064,62.064,0,0,0,20.563,9.52V861.05H444Z" transform="translate(-369.427 -716.375)" fill="#a30046"></path><path d="M327.209,863.647c-1.127,22.115,6.55,37.276,19.533,46.771V861.05H327.532C327.433,862.315,327.34,862.385,327.209,863.647Z" transform="translate(-272.161 -716.375)" fill="#0054a4"></path><path d="M699.121,871.959a19.254,19.254,0,0,1,10.23,2.943V861.05H688.79v13.922A19.245,19.245,0,0,1,699.121,871.959Z" transform="translate(-573.103 -716.375)" fill="#a30046"></path><path d="M699.112,1141.8a19.248,19.248,0,0,1-10.333-3.008l0,15.334c.365.018.722.044,1.087.062,6.831.033,13.023.072,18.386,0,.366-.019.726-.044,1.088-.062v-15.271A19.255,19.255,0,0,1,699.112,1141.8Z" transform="translate(-573.094 -947.469)" fill="#a30046"></path><path d="M811.18,861.05v13.857a19.33,19.33,0,0,1,0,32.857v15.269a98.345,98.345,0,0,0,20.561-3.1V861.05Z" transform="translate(-674.937 -716.375)" fill="#0054a4"></path><path d="M577.922,891.338a19.342,19.342,0,0,1,9.042-16.369l0-13.919H566.4v58.882a98.31,98.31,0,0,0,20.563,3.1V907.7A19.34,19.34,0,0,1,577.922,891.338Z" transform="translate(-471.269 -716.375)" fill="#0054a4"></path><path d="M385.19,367.217a57.424,57.424,0,0,1,.539,19.616H405.7v17.99h19.614v-17.99h20.9V367.217h-20.9V347.266a60.3,60.3,0,0,1-6.8-3.556,49.559,49.559,0,0,1-12.812,5.128v18.38Z" transform="translate(-320.495 -285.926)" fill="#e31837"></path><path d="M964.924,421.148V365.436a47.9,47.9,0,0,1-7.054-2.106v57.818Z" transform="translate(-796.989 -302.25)" fill="#e31837"></path><path d="M797.054,435.492V380.57A50.524,50.524,0,0,1,790,381.989v53.494Z" transform="translate(-657.314 -316.595)" fill="#e31837"></path><path d="M1048.864,436.965v-54.25c-2.437-.047-4.778-.16-7.054-.375v54.625Z" transform="translate(-866.831 -318.067)" fill="#e31837"></path><path d="M880.984,405.064V344a60.2,60.2,0,0,1-7.054,3.653v57.411Z" transform="translate(-727.147 -286.167)" fill="#e31837"></path><path d="M392.187,358.606l-2.687-2.793c-11.473-11.9-27.7-41.68-7-69.19l1.624-2.162L376.3,273.494l-2.807.969a39.38,39.38,0,0,1-12.674,2.222c-11.822,0-19.57-1.152-29.107-7.467l-2.23-1.478-2.2,1.527c-8.44,5.86-16.572,8.594-25.6,8.594s-17.158-2.728-25.6-8.584l-2.2-1.527-2.23,1.478c-9.537,6.308-17.284,7.457-29.107,7.457a39.366,39.366,0,0,1-12.674-2.224l-2.807-.967-7.828,10.963,1.626,2.163c20.7,27.51,4.476,57.288-7,69.2l-2.687,2.791,2.744,2.738c1.475,1.471,4.09,4.185,6.251,6.461,0,.128-.008.24-.013.353a6.289,6.289,0,0,1-.059.815l-.022.255c-1.058,19.841,4.115,36.178,15.371,48.553,11.925,13.119,30.58,20.963,52.631,22.17,5.464,4.977,11.011,9.1,11.253,9.286l2.351,1.748,2.351-1.755c.245-.183,5.763-4.306,11.221-9.28,22.053-1.211,40.7-9.055,52.631-22.17,11.253-12.375,16.428-28.709,15.373-48.553l-.024-.255a7.353,7.353,0,0,1-.057-.82c0-.108-.01-.22-.015-.348,2.163-2.276,4.782-4.992,6.253-6.461Zm-13.064,7.751c.2,1.994.084,1.916.222,3.082,2.351,44.221-28.452,65.1-65.685,66.645-5.69,5.316-11.959,9.988-11.959,9.988s-6.3-4.673-11.99-9.988c-37.231-1.542-68.039-22.424-65.685-66.645.139-1.166.022-1.088.223-3.08-2.135-2.257-5.667-5.946-7.533-7.807,13.354-13.856,28.936-45.558,7.308-74.3l4.568-6.055a43.218,43.218,0,0,0,13.962,2.442c12.4,0,20.872-1.231,31.285-8.126,8.23,5.711,17.155,9.291,27.846,9.291s19.616-3.577,27.847-9.291c10.413,6.895,18.878,8.126,31.284,8.126A43.234,43.234,0,0,0,374.78,278.2l4.567,6.058c-21.63,28.742-6.046,60.444,7.309,74.3C384.79,360.414,381.256,364.1,379.123,366.358Z" transform="translate(-175.719 -222.715)" fill="#231f20"></path><path d="M323.95,858.049a11.983,11.983,0,0,1-.168,1.36c-.05.309-.1.645-.168,1.253-.867,17.006,3.381,30.77,12.624,40.909,10.6,11.628,27.778,18.25,49.692,19.159h.84c3.646.022,7.106.037,10.35.037,2.543,0,4.953,0,7.222-.042,21.893-.907,39.067-7.53,49.67-19.157,9.238-10.141,13.492-23.9,12.622-40.938-.06-.579-.113-.915-.168-1.224-.057-.361-.107-.685-.168-1.36l-.044-.546H323.992Zm.855,2.7c.059-.549.107-.867.153-1.162s.082-.524.123-.9H465.192c.042.381.082.63.123.905s.1.61.153,1.13c.84,16.677-3.3,30.15-12.318,40.048-10.386,11.4-27.276,17.882-48.828,18.776-5.141.071-11.043.04-17.54,0h-.813c-21.569-.893-38.462-7.39-48.844-18.774C328.1,890.878,323.958,877.4,324.8,860.753Z" transform="translate(-269.169 -713.421)" fill="#231f20"></path><path d="M340.953,401.181l-.361.828H474.2l-.361-.828c-5.8-13.311-10.153-33.58,2.1-54.549l.655-1.124-1.278.247a46.75,46.75,0,0,1-8.787.853c-11.925,0-20.8-1.115-30.891-6.817l-.3-.168-.3.181a51.893,51.893,0,0,1-55.283,0l-.3-.181-.3.168c-10.089,5.7-18.967,6.817-30.891,6.817a50.475,50.475,0,0,1-8.767-.808l-1.26-.223.647,1.1C351.112,367.61,346.766,387.872,340.953,401.181Zm66.781-52.225a53.312,53.312,0,0,0,27.617-7.966c10.188,5.682,19.166,6.8,31.171,6.8a47.753,47.753,0,0,0,7.76-.652c-11.471,20.571-7.509,40.358-1.885,53.681H407.734Zm-67.206-1.787a50.546,50.546,0,0,0,7.739.623c12,0,20.981-1.12,31.171-6.8a53.26,53.26,0,0,0,27.118,7.959v51.87H342.4C348.024,387.5,351.994,367.709,340.528,347.17Z" transform="translate(-281.43 -282.523)" fill="#231f20"></path><path d="M584.087,734v-3.9H570.86v18.326h3.977v-7.558h5.4v-3.875h-5.4V734Z" transform="translate(-474.98 -607.419)" fill="#231f20"></path><path d="M701.632,732.464a3.222,3.222,0,0,1,3.107,1.847l.084.168,3.682-1.7-.086-.18a7.013,7.013,0,0,0-6.737-4.083c-4.805,0-8.163,3.885-8.163,9.444,0,5.737,3.154,9.443,8.033,9.443a7.02,7.02,0,0,0,6.812-4.157l.081-.168L705.1,741.1l-.1.168c-.952,1.6-1.858,2.183-3.344,2.183-2.427,0-4.058-2.209-4.058-5.494C697.6,734.56,699.143,732.464,701.632,732.464Z" transform="translate(-577.039 -606.104)" fill="#231f20"></path><path d="M853.811,735.035c0-3.089-2.2-4.935-5.878-4.935H839.51v18.326h8.341c4.117,0,6.576-2.239,6.576-5.986a4.3,4.3,0,0,0-2.314-3.945A4.175,4.175,0,0,0,853.811,735.035Zm-10.4-1.241h4.367c1.779,0,2.007.816,2.007,1.523,0,1.008-.6,1.5-1.827,1.5h-4.535Zm4.578,10.833h-4.578v-4.248h4.578c1.612,0,2.365.672,2.365,2.115C850.342,743.889,849.529,744.627,847.99,744.627Z" transform="translate(-698.508 -607.419)" fill="#231f20"></path><path d="M651.5,962.477a19.794,19.794,0,1,0-19.792-19.793A19.794,19.794,0,0,0,651.5,962.477Zm0-1.189a18.54,18.54,0,0,1-10.381-3.166c3.929-.181,9.15-1.176,12.39-3.114,3.139-1.871,6.473-4.2,7.083-7.326,2.281-1.139,6.644-.6,7.2,3.989A18.6,18.6,0,0,1,651.5,961.288Zm-9.174-14.344a7.712,7.712,0,0,0,3.315,1.176c2.582.336,6.174-2.235,6.4-5.148,3.552-2.519,6.29-.233,7.116,1.74,1.629,3.9-1.8,6.718-6.214,9.348-3.42,2.036-9.382,3.013-13.269,2.983a18.7,18.7,0,0,1-4.911-6.228c.149,0,.3.012.45.012A7.965,7.965,0,0,0,642.328,946.945Zm-2.961-9.4c-.05-3.643.982-6.838,1.8-10.328a18.44,18.44,0,0,1,8.715-3.067,5.156,5.156,0,0,0,.5,7.539,5.462,5.462,0,0,0-1.391,1.522,7.153,7.153,0,0,0,1.935,9.742c-.23,2.183-3.136,4.321-5.148,4.063C641.473,946.471,639.436,942.469,639.367,937.549Zm21.32,8.9a6.282,6.282,0,0,0-.5-2.163c-.989-2.362-4.4-5.235-8.683-2.279a6.043,6.043,0,0,1-1.565-8.2c2.162-3.428,7.078-2.062,11.569.448,3.643,2.036,7.461,6.29,8.522,10.14a18.438,18.438,0,0,1-1.446,5.675c-1.263-3.945-5.366-4.52-7.892-3.63Zm1.357-13.158c-3.245-1.819-7.514-3.478-10.59-2.2a4.1,4.1,0,0,1,.208-7.011,18.6,18.6,0,0,1,18.406,17.468,21.653,21.653,0,0,0-8.025-8.263Zm-22.273-5.039c-.346,1.369-.68,2.565-.947,3.782-.957,4.384-.946,10.984,2.62,14.233a6.87,6.87,0,0,1-6.226,3.462,7.292,7.292,0,0,1-.966-.066A18.62,18.62,0,0,1,639.772,928.255Z" transform="translate(-525.61 -767.828)" fill="#231f20"></path></g></g></svg>